<mxfile host="app.diagrams.net" modified="2022-06-02T01:22:22.821Z" agent="5.0 (Macintosh; Intel Mac OS X 10_15_7) AppleWebKit/537.36 (KHTML, like Gecko) Chrome/102.0.5005.61 Safari/537.36" etag="akOHWpj35Saqhf1a9_zw" version="18.2.0" type="github">
  <diagram id="sx4DB-smJGjERo_jBSHq" name="Page-1">
    <mxGraphModel dx="2156" dy="2360" grid="0" gridSize="10" guides="1" tooltips="1" connect="1" arrows="1" fold="1" page="1" pageScale="1" pageWidth="827" pageHeight="1169" background="#ffffff" math="0" shadow="1">
      <root>
        <mxCell id="0" />
        <mxCell id="1" parent="0" />
        <mxCell id="05hHKeat-juu67TqZmML-76" value="AWS Cloud" style="points=[[0,0],[0.25,0],[0.5,0],[0.75,0],[1,0],[1,0.25],[1,0.5],[1,0.75],[1,1],[0.75,1],[0.5,1],[0.25,1],[0,1],[0,0.75],[0,0.5],[0,0.25]];outlineConnect=0;gradientColor=none;html=1;whiteSpace=wrap;fontSize=12;fontStyle=0;container=1;pointerEvents=0;collapsible=0;recursiveResize=0;shape=mxgraph.aws4.group;grIcon=mxgraph.aws4.group_aws_cloud_alt;strokeColor=#232F3E;fillColor=none;verticalAlign=top;align=left;spacingLeft=30;fontColor=#232F3E;dashed=0;rounded=1;" parent="1" vertex="1">
          <mxGeometry x="20" y="-170" width="2741" height="1590" as="geometry" />
        </mxCell>
        <mxCell id="Bep4C9arfv8VF3FYXjHi-2" value="&lt;font style=&quot;font-size: 17px;&quot;&gt;payment-service&lt;/font&gt;" style="text;html=1;align=center;verticalAlign=middle;resizable=0;points=[];autosize=1;strokeColor=none;fillColor=none;" parent="05hHKeat-juu67TqZmML-76" vertex="1">
          <mxGeometry x="187" y="648" width="135" height="20" as="geometry" />
        </mxCell>
        <mxCell id="gEH1WUusGIEwQWeTA551-2" style="edgeStyle=orthogonalEdgeStyle;orthogonalLoop=1;jettySize=auto;html=1;entryX=0;entryY=0.48;entryDx=0;entryDy=0;entryPerimeter=0;curved=1;" edge="1" parent="05hHKeat-juu67TqZmML-76" source="Bep4C9arfv8VF3FYXjHi-3" target="Bep4C9arfv8VF3FYXjHi-16">
          <mxGeometry relative="1" as="geometry" />
        </mxCell>
        <mxCell id="gEH1WUusGIEwQWeTA551-4" style="edgeStyle=orthogonalEdgeStyle;curved=1;orthogonalLoop=1;jettySize=auto;html=1;exitX=1;exitY=0.76;exitDx=0;exitDy=0;exitPerimeter=0;entryX=0;entryY=0.5;entryDx=0;entryDy=0;entryPerimeter=0;" edge="1" parent="05hHKeat-juu67TqZmML-76" source="Bep4C9arfv8VF3FYXjHi-3" target="Bep4C9arfv8VF3FYXjHi-10">
          <mxGeometry relative="1" as="geometry" />
        </mxCell>
        <mxCell id="Bep4C9arfv8VF3FYXjHi-3" value="" style="outlineConnect=0;dashed=0;verticalLabelPosition=bottom;verticalAlign=top;align=center;html=1;shape=mxgraph.aws3.ecs;fillColor=#F58534;gradientColor=none;fontSize=17;" parent="05hHKeat-juu67TqZmML-76" vertex="1">
          <mxGeometry x="215.5" y="569" width="65" height="67.5" as="geometry" />
        </mxCell>
        <mxCell id="Bep4C9arfv8VF3FYXjHi-4" value="&lt;font style=&quot;font-size: 17px;&quot;&gt;payment-receipt-service&lt;/font&gt;" style="text;html=1;align=center;verticalAlign=middle;resizable=0;points=[];autosize=1;strokeColor=none;fillColor=none;" parent="05hHKeat-juu67TqZmML-76" vertex="1">
          <mxGeometry x="1098" y="160" width="191" height="20" as="geometry" />
        </mxCell>
        <mxCell id="gEH1WUusGIEwQWeTA551-21" style="edgeStyle=orthogonalEdgeStyle;curved=1;orthogonalLoop=1;jettySize=auto;html=1;fontSize=17;" edge="1" parent="05hHKeat-juu67TqZmML-76" source="Bep4C9arfv8VF3FYXjHi-5" target="gEH1WUusGIEwQWeTA551-16">
          <mxGeometry relative="1" as="geometry" />
        </mxCell>
        <mxCell id="gEH1WUusGIEwQWeTA551-32" style="edgeStyle=orthogonalEdgeStyle;curved=1;orthogonalLoop=1;jettySize=auto;html=1;entryX=0;entryY=0.5;entryDx=0;entryDy=0;entryPerimeter=0;fontSize=17;" edge="1" parent="05hHKeat-juu67TqZmML-76" source="Bep4C9arfv8VF3FYXjHi-5" target="gEH1WUusGIEwQWeTA551-28">
          <mxGeometry relative="1" as="geometry" />
        </mxCell>
        <mxCell id="Bep4C9arfv8VF3FYXjHi-5" value="" style="outlineConnect=0;dashed=0;verticalLabelPosition=bottom;verticalAlign=top;align=center;html=1;shape=mxgraph.aws3.ecs;fillColor=#F58534;gradientColor=none;fontSize=17;" parent="05hHKeat-juu67TqZmML-76" vertex="1">
          <mxGeometry x="1157.5" y="199.75" width="72" height="67.5" as="geometry" />
        </mxCell>
        <mxCell id="Bep4C9arfv8VF3FYXjHi-10" value="" style="points=[[0,0,0],[0.25,0,0],[0.5,0,0],[0.75,0,0],[1,0,0],[0,1,0],[0.25,1,0],[0.5,1,0],[0.75,1,0],[1,1,0],[0,0.25,0],[0,0.5,0],[0,0.75,0],[1,0.25,0],[1,0.5,0],[1,0.75,0]];outlineConnect=0;fontColor=#232F3E;gradientColor=#4D72F3;gradientDirection=north;fillColor=#3334B9;strokeColor=#ffffff;dashed=0;verticalLabelPosition=bottom;verticalAlign=top;align=center;html=1;fontSize=12;fontStyle=0;aspect=fixed;shape=mxgraph.aws4.resourceIcon;resIcon=mxgraph.aws4.dynamodb;" parent="05hHKeat-juu67TqZmML-76" vertex="1">
          <mxGeometry x="586" y="708" width="78" height="78" as="geometry" />
        </mxCell>
        <mxCell id="05hHKeat-juu67TqZmML-3" value="&lt;font style=&quot;font-size: 16px;&quot;&gt;AWS API Gateway&lt;/font&gt;" style="text;html=1;align=center;verticalAlign=middle;resizable=0;points=[];autosize=1;strokeColor=none;fillColor=none;rounded=1;" parent="05hHKeat-juu67TqZmML-76" vertex="1">
          <mxGeometry x="187" y="29" width="143" height="20" as="geometry" />
        </mxCell>
        <mxCell id="Bep4C9arfv8VF3FYXjHi-15" value="&lt;font style=&quot;font-size: 17px;&quot;&gt;payment&lt;/font&gt;" style="text;html=1;align=center;verticalAlign=middle;resizable=0;points=[];autosize=1;strokeColor=none;fillColor=none;fontSize=14;" parent="05hHKeat-juu67TqZmML-76" vertex="1">
          <mxGeometry x="586" y="668" width="75" height="22" as="geometry" />
        </mxCell>
        <mxCell id="gEH1WUusGIEwQWeTA551-6" style="edgeStyle=orthogonalEdgeStyle;curved=1;orthogonalLoop=1;jettySize=auto;html=1;entryX=0;entryY=0.5;entryDx=0;entryDy=0;entryPerimeter=0;" edge="1" parent="05hHKeat-juu67TqZmML-76" source="Bep4C9arfv8VF3FYXjHi-16" target="Bep4C9arfv8VF3FYXjHi-27">
          <mxGeometry relative="1" as="geometry" />
        </mxCell>
        <mxCell id="gEH1WUusGIEwQWeTA551-7" style="edgeStyle=orthogonalEdgeStyle;curved=1;orthogonalLoop=1;jettySize=auto;html=1;exitX=1;exitY=0.5;exitDx=0;exitDy=0;exitPerimeter=0;entryX=0;entryY=0.5;entryDx=0;entryDy=0;entryPerimeter=0;" edge="1" parent="05hHKeat-juu67TqZmML-76" source="Bep4C9arfv8VF3FYXjHi-16" target="gEH1WUusGIEwQWeTA551-5">
          <mxGeometry relative="1" as="geometry" />
        </mxCell>
        <mxCell id="Bep4C9arfv8VF3FYXjHi-16" value="" style="outlineConnect=0;dashed=0;verticalLabelPosition=bottom;verticalAlign=top;align=center;html=1;shape=mxgraph.aws3.sns;fillColor=#D9A741;gradientColor=none;fontSize=16;" parent="05hHKeat-juu67TqZmML-76" vertex="1">
          <mxGeometry x="578.5" y="415" width="76.5" height="76.5" as="geometry" />
        </mxCell>
        <mxCell id="Bep4C9arfv8VF3FYXjHi-21" value="payment-event" style="text;html=1;align=center;verticalAlign=middle;resizable=0;points=[];autosize=1;strokeColor=none;fillColor=none;fontSize=16;" parent="05hHKeat-juu67TqZmML-76" vertex="1">
          <mxGeometry x="565.5" y="381" width="116" height="23" as="geometry" />
        </mxCell>
        <mxCell id="Bep4C9arfv8VF3FYXjHi-25" value="&lt;span style=&quot;font-size: 17px;&quot;&gt;payment-schedule&lt;/span&gt;" style="text;html=1;align=center;verticalAlign=middle;resizable=0;points=[];autosize=1;strokeColor=none;fillColor=none;fontSize=16;" parent="05hHKeat-juu67TqZmML-76" vertex="1">
          <mxGeometry x="813" y="578" width="149" height="23" as="geometry" />
        </mxCell>
        <mxCell id="gEH1WUusGIEwQWeTA551-9" style="edgeStyle=orthogonalEdgeStyle;curved=1;orthogonalLoop=1;jettySize=auto;html=1;exitX=1;exitY=0.5;exitDx=0;exitDy=0;exitPerimeter=0;entryX=0;entryY=0.5;entryDx=0;entryDy=0;entryPerimeter=0;fontSize=17;" edge="1" parent="05hHKeat-juu67TqZmML-76" source="Bep4C9arfv8VF3FYXjHi-27" target="Bep4C9arfv8VF3FYXjHi-5">
          <mxGeometry relative="1" as="geometry" />
        </mxCell>
        <mxCell id="Bep4C9arfv8VF3FYXjHi-27" value="" style="outlineConnect=0;dashed=0;verticalLabelPosition=bottom;verticalAlign=top;align=center;html=1;shape=mxgraph.aws3.sqs;fillColor=#D9A741;gradientColor=none;fontSize=16;" parent="05hHKeat-juu67TqZmML-76" vertex="1">
          <mxGeometry x="835" y="187" width="77" height="93" as="geometry" />
        </mxCell>
        <mxCell id="gEH1WUusGIEwQWeTA551-13" style="edgeStyle=orthogonalEdgeStyle;curved=1;orthogonalLoop=1;jettySize=auto;html=1;exitX=1;exitY=0.5;exitDx=0;exitDy=0;exitPerimeter=0;entryX=0;entryY=0.5;entryDx=0;entryDy=0;entryPerimeter=0;fontSize=17;" edge="1" parent="05hHKeat-juu67TqZmML-76" source="gEH1WUusGIEwQWeTA551-5" target="gEH1WUusGIEwQWeTA551-10">
          <mxGeometry relative="1" as="geometry" />
        </mxCell>
        <mxCell id="gEH1WUusGIEwQWeTA551-5" value="" style="outlineConnect=0;dashed=0;verticalLabelPosition=bottom;verticalAlign=top;align=center;html=1;shape=mxgraph.aws3.sqs;fillColor=#D9A741;gradientColor=none;fontSize=16;" vertex="1" parent="05hHKeat-juu67TqZmML-76">
          <mxGeometry x="850" y="615" width="77" height="93" as="geometry" />
        </mxCell>
        <mxCell id="gEH1WUusGIEwQWeTA551-8" value="payment-receipt" style="text;html=1;align=center;verticalAlign=middle;resizable=0;points=[];autosize=1;strokeColor=none;fillColor=none;fontSize=17;" vertex="1" parent="05hHKeat-juu67TqZmML-76">
          <mxGeometry x="813" y="156" width="132" height="24" as="geometry" />
        </mxCell>
        <mxCell id="gEH1WUusGIEwQWeTA551-24" style="edgeStyle=orthogonalEdgeStyle;curved=1;orthogonalLoop=1;jettySize=auto;html=1;entryX=0;entryY=0.5;entryDx=0;entryDy=0;entryPerimeter=0;fontSize=17;" edge="1" parent="05hHKeat-juu67TqZmML-76" source="gEH1WUusGIEwQWeTA551-10" target="gEH1WUusGIEwQWeTA551-23">
          <mxGeometry relative="1" as="geometry" />
        </mxCell>
        <mxCell id="gEH1WUusGIEwQWeTA551-10" value="" style="outlineConnect=0;dashed=0;verticalLabelPosition=bottom;verticalAlign=top;align=center;html=1;shape=mxgraph.aws3.lambda;fillColor=#F58534;gradientColor=none;fontSize=17;" vertex="1" parent="05hHKeat-juu67TqZmML-76">
          <mxGeometry x="1157.5" y="615" width="76.5" height="93" as="geometry" />
        </mxCell>
        <mxCell id="gEH1WUusGIEwQWeTA551-15" value="&lt;span style=&quot;font-size: 17px;&quot;&gt;payment-schedule-function&lt;/span&gt;" style="text;html=1;align=center;verticalAlign=middle;resizable=0;points=[];autosize=1;strokeColor=none;fillColor=none;" vertex="1" parent="05hHKeat-juu67TqZmML-76">
          <mxGeometry x="1095" y="585" width="214" height="20" as="geometry" />
        </mxCell>
        <mxCell id="gEH1WUusGIEwQWeTA551-16" value="" style="points=[[0,0,0],[0.25,0,0],[0.5,0,0],[0.75,0,0],[1,0,0],[0,1,0],[0.25,1,0],[0.5,1,0],[0.75,1,0],[1,1,0],[0,0.25,0],[0,0.5,0],[0,0.75,0],[1,0.25,0],[1,0.5,0],[1,0.75,0]];outlineConnect=0;fontColor=#232F3E;gradientColor=#4D72F3;gradientDirection=north;fillColor=#3334B9;strokeColor=#ffffff;dashed=0;verticalLabelPosition=bottom;verticalAlign=top;align=center;html=1;fontSize=12;fontStyle=0;aspect=fixed;shape=mxgraph.aws4.resourceIcon;resIcon=mxgraph.aws4.dynamodb;" vertex="1" parent="05hHKeat-juu67TqZmML-76">
          <mxGeometry x="1410" y="194.5" width="78" height="78" as="geometry" />
        </mxCell>
        <mxCell id="gEH1WUusGIEwQWeTA551-22" value="&lt;span style=&quot;color: rgb(0, 0, 0); font-family: Helvetica; font-size: 17px; font-style: normal; font-variant-ligatures: normal; font-variant-caps: normal; font-weight: 400; letter-spacing: normal; orphans: 2; text-align: center; text-indent: 0px; text-transform: none; widows: 2; word-spacing: 0px; -webkit-text-stroke-width: 0px; background-color: rgb(248, 249, 250); text-decoration-thickness: initial; text-decoration-style: initial; text-decoration-color: initial; float: none; display: inline !important;&quot;&gt;payment-receipt&lt;/span&gt;" style="text;whiteSpace=wrap;html=1;fontSize=17;" vertex="1" parent="05hHKeat-juu67TqZmML-76">
          <mxGeometry x="1395.000909090909" y="153.00363636363625" width="201" height="34" as="geometry" />
        </mxCell>
        <mxCell id="gEH1WUusGIEwQWeTA551-23" value="" style="points=[[0,0,0],[0.25,0,0],[0.5,0,0],[0.75,0,0],[1,0,0],[0,1,0],[0.25,1,0],[0.5,1,0],[0.75,1,0],[1,1,0],[0,0.25,0],[0,0.5,0],[0,0.75,0],[1,0.25,0],[1,0.5,0],[1,0.75,0]];outlineConnect=0;fontColor=#232F3E;gradientColor=#4D72F3;gradientDirection=north;fillColor=#3334B9;strokeColor=#ffffff;dashed=0;verticalLabelPosition=bottom;verticalAlign=top;align=center;html=1;fontSize=12;fontStyle=0;aspect=fixed;shape=mxgraph.aws4.resourceIcon;resIcon=mxgraph.aws4.dynamodb;" vertex="1" parent="05hHKeat-juu67TqZmML-76">
          <mxGeometry x="1417" y="622.5" width="78" height="78" as="geometry" />
        </mxCell>
        <mxCell id="gEH1WUusGIEwQWeTA551-25" value="&lt;span style=&quot;text-align: center;&quot;&gt;payment-schedule&lt;/span&gt;" style="text;whiteSpace=wrap;html=1;fontSize=17;" vertex="1" parent="05hHKeat-juu67TqZmML-76">
          <mxGeometry x="1384.9972727272725" y="578.0036363636362" width="142" height="34" as="geometry" />
        </mxCell>
        <mxCell id="05hHKeat-juu67TqZmML-2" value="" style="outlineConnect=0;dashed=0;verticalLabelPosition=bottom;verticalAlign=top;align=center;html=1;shape=mxgraph.aws3.api_gateway;fillColor=#D9A741;gradientColor=none;rounded=1;" parent="05hHKeat-juu67TqZmML-76" vertex="1">
          <mxGeometry x="210.5" y="55" width="76.5" height="93" as="geometry" />
        </mxCell>
        <mxCell id="gEH1WUusGIEwQWeTA551-26" style="edgeStyle=orthogonalEdgeStyle;curved=1;orthogonalLoop=1;jettySize=auto;html=1;entryX=0.5;entryY=0.095;entryDx=0;entryDy=0;entryPerimeter=0;fontSize=17;" edge="1" parent="05hHKeat-juu67TqZmML-76" source="05hHKeat-juu67TqZmML-2" target="Bep4C9arfv8VF3FYXjHi-3">
          <mxGeometry relative="1" as="geometry" />
        </mxCell>
        <mxCell id="gEH1WUusGIEwQWeTA551-28" value="" style="outlineConnect=0;dashed=0;verticalLabelPosition=bottom;verticalAlign=top;align=center;html=1;shape=mxgraph.aws3.s3;fillColor=#E05243;gradientColor=none;fontSize=17;" vertex="1" parent="05hHKeat-juu67TqZmML-76">
          <mxGeometry x="1414" y="335" width="76.5" height="93" as="geometry" />
        </mxCell>
        <mxCell id="gEH1WUusGIEwQWeTA551-31" value="&lt;span style=&quot;color: rgb(0, 0, 0); font-family: Helvetica; font-size: 17px; font-style: normal; font-variant-ligatures: normal; font-variant-caps: normal; font-weight: 400; letter-spacing: normal; orphans: 2; text-align: center; text-indent: 0px; text-transform: none; widows: 2; word-spacing: 0px; -webkit-text-stroke-width: 0px; background-color: rgb(248, 249, 250); text-decoration-thickness: initial; text-decoration-style: initial; text-decoration-color: initial; float: none; display: inline !important;&quot;&gt;payment-receipt-file&lt;/span&gt;" style="text;whiteSpace=wrap;html=1;fontSize=17;" vertex="1" parent="05hHKeat-juu67TqZmML-76">
          <mxGeometry x="1398.000909090909" y="301.00363636363625" width="201" height="34" as="geometry" />
        </mxCell>
        <mxCell id="gEH1WUusGIEwQWeTA551-33" value="" style="outlineConnect=0;dashed=0;verticalLabelPosition=bottom;verticalAlign=top;align=center;html=1;shape=mxgraph.aws3.sns;fillColor=#D9A741;gradientColor=none;fontSize=17;" vertex="1" parent="05hHKeat-juu67TqZmML-76">
          <mxGeometry x="2033" y="831" width="76.5" height="77" as="geometry" />
        </mxCell>
        <mxCell id="gEH1WUusGIEwQWeTA551-35" value="payment-schedule-event" style="text;html=1;align=center;verticalAlign=middle;resizable=0;points=[];autosize=1;strokeColor=none;fillColor=none;fontSize=17;" vertex="1" parent="05hHKeat-juu67TqZmML-76">
          <mxGeometry x="1985" y="790" width="196" height="24" as="geometry" />
        </mxCell>
        <mxCell id="gEH1WUusGIEwQWeTA551-40" style="edgeStyle=orthogonalEdgeStyle;curved=1;orthogonalLoop=1;jettySize=auto;html=1;entryX=0.13;entryY=0.5;entryDx=0;entryDy=0;entryPerimeter=0;fontSize=17;" edge="1" parent="05hHKeat-juu67TqZmML-76" source="gEH1WUusGIEwQWeTA551-37" target="gEH1WUusGIEwQWeTA551-39">
          <mxGeometry relative="1" as="geometry" />
        </mxCell>
        <mxCell id="gEH1WUusGIEwQWeTA551-37" value="" style="sketch=0;points=[[0,0,0],[0.25,0,0],[0.5,0,0],[0.75,0,0],[1,0,0],[0,1,0],[0.25,1,0],[0.5,1,0],[0.75,1,0],[1,1,0],[0,0.25,0],[0,0.5,0],[0,0.75,0],[1,0.25,0],[1,0.5,0],[1,0.75,0]];outlineConnect=0;fontColor=#232F3E;gradientColor=#FF4F8B;gradientDirection=north;fillColor=#BC1356;strokeColor=#ffffff;dashed=0;verticalLabelPosition=bottom;verticalAlign=top;align=center;html=1;fontSize=12;fontStyle=0;aspect=fixed;shape=mxgraph.aws4.resourceIcon;resIcon=mxgraph.aws4.eventbridge;" vertex="1" parent="05hHKeat-juu67TqZmML-76">
          <mxGeometry x="1158" y="826" width="78" height="78" as="geometry" />
        </mxCell>
        <mxCell id="gEH1WUusGIEwQWeTA551-38" value="payment-schedule-eb" style="text;html=1;align=center;verticalAlign=middle;resizable=0;points=[];autosize=1;strokeColor=none;fillColor=none;fontSize=17;" vertex="1" parent="05hHKeat-juu67TqZmML-76">
          <mxGeometry x="1114" y="782" width="173" height="24" as="geometry" />
        </mxCell>
        <mxCell id="gEH1WUusGIEwQWeTA551-49" style="edgeStyle=orthogonalEdgeStyle;curved=1;orthogonalLoop=1;jettySize=auto;html=1;entryX=0;entryY=0.5;entryDx=0;entryDy=0;entryPerimeter=0;fontSize=17;" edge="1" parent="05hHKeat-juu67TqZmML-76" source="gEH1WUusGIEwQWeTA551-39" target="gEH1WUusGIEwQWeTA551-46">
          <mxGeometry relative="1" as="geometry" />
        </mxCell>
        <mxCell id="gEH1WUusGIEwQWeTA551-39" value="" style="outlineConnect=0;dashed=0;verticalLabelPosition=bottom;verticalAlign=top;align=center;html=1;shape=mxgraph.aws3.step_functions;fillColor=#D9A741;gradientColor=none;fontSize=17;" vertex="1" parent="05hHKeat-juu67TqZmML-76">
          <mxGeometry x="1417" y="818.5" width="76.5" height="93" as="geometry" />
        </mxCell>
        <mxCell id="gEH1WUusGIEwQWeTA551-41" value="&lt;span style=&quot;color: rgb(0, 0, 0); font-family: Helvetica; font-size: 17px; font-style: normal; font-variant-ligatures: normal; font-variant-caps: normal; font-weight: 400; letter-spacing: normal; orphans: 2; text-align: center; text-indent: 0px; text-transform: none; widows: 2; word-spacing: 0px; -webkit-text-stroke-width: 0px; background-color: rgb(248, 249, 250); text-decoration-thickness: initial; text-decoration-style: initial; text-decoration-color: initial; float: none; display: inline !important;&quot;&gt;payment-schedule-ef&lt;/span&gt;" style="text;whiteSpace=wrap;html=1;fontSize=17;" vertex="1" parent="05hHKeat-juu67TqZmML-76">
          <mxGeometry x="1373.9999999999995" y="776.9972727272725" width="183" height="34" as="geometry" />
        </mxCell>
        <mxCell id="gEH1WUusGIEwQWeTA551-50" style="edgeStyle=orthogonalEdgeStyle;curved=1;orthogonalLoop=1;jettySize=auto;html=1;exitX=1;exitY=0.5;exitDx=0;exitDy=0;exitPerimeter=0;entryX=0;entryY=0.48;entryDx=0;entryDy=0;entryPerimeter=0;fontSize=17;" edge="1" parent="05hHKeat-juu67TqZmML-76" source="gEH1WUusGIEwQWeTA551-46" target="gEH1WUusGIEwQWeTA551-33">
          <mxGeometry relative="1" as="geometry" />
        </mxCell>
        <mxCell id="gEH1WUusGIEwQWeTA551-51" style="edgeStyle=orthogonalEdgeStyle;curved=1;orthogonalLoop=1;jettySize=auto;html=1;entryX=1;entryY=0.5;entryDx=0;entryDy=0;entryPerimeter=0;fontSize=17;" edge="1" parent="05hHKeat-juu67TqZmML-76" source="gEH1WUusGIEwQWeTA551-46" target="gEH1WUusGIEwQWeTA551-23">
          <mxGeometry relative="1" as="geometry" />
        </mxCell>
        <mxCell id="gEH1WUusGIEwQWeTA551-46" value="" style="outlineConnect=0;dashed=0;verticalLabelPosition=bottom;verticalAlign=top;align=center;html=1;shape=mxgraph.aws3.lambda;fillColor=#F58534;gradientColor=none;fontSize=17;" vertex="1" parent="05hHKeat-juu67TqZmML-76">
          <mxGeometry x="1712" y="820" width="76.5" height="93" as="geometry" />
        </mxCell>
        <mxCell id="gEH1WUusGIEwQWeTA551-47" value="&lt;span style=&quot;color: rgb(0, 0, 0); font-family: Helvetica; font-size: 17px; font-style: normal; font-variant-ligatures: normal; font-variant-caps: normal; font-weight: 400; letter-spacing: normal; orphans: 2; text-align: center; text-indent: 0px; text-transform: none; widows: 2; word-spacing: 0px; -webkit-text-stroke-width: 0px; background-color: rgb(248, 249, 250); text-decoration-thickness: initial; text-decoration-style: initial; text-decoration-color: initial; float: none; display: inline !important;&quot;&gt;payment-schedule-process-function&lt;/span&gt;" style="text;whiteSpace=wrap;html=1;fontSize=17;" vertex="1" parent="05hHKeat-juu67TqZmML-76">
          <mxGeometry x="1629" y="777" width="280" height="34" as="geometry" />
        </mxCell>
      </root>
    </mxGraphModel>
  </diagram>
</mxfile>
